<?xml version="1.0" encoding="UTF-8" standalone="no"?>
<!-- Created with Inkscape (http://www.inkscape.org/) -->

<svg
   version="1.1"
   id="svg2"
   width="541.22668"
   height="167.81332"
   viewBox="0 0 541.22668 167.81332"
   sodipodi:docname="FIRST-Alumni-Reverse-h.eps"
   xmlns:inkscape="http://www.inkscape.org/namespaces/inkscape"
   xmlns:sodipodi="http://sodipodi.sourceforge.net/DTD/sodipodi-0.dtd"
   xmlns="http://www.w3.org/2000/svg"
   xmlns:svg="http://www.w3.org/2000/svg">
  <defs
     id="defs6" />
  <sodipodi:namedview
     id="namedview4"
     pagecolor="#ffffff"
     bordercolor="#000000"
     borderopacity="0.25"
     inkscape:showpageshadow="2"
     inkscape:pageopacity="0.0"
     inkscape:pagecheckerboard="0"
     inkscape:deskcolor="#d1d1d1" />
  <g
     id="g8"
     inkscape:groupmode="layer"
     inkscape:label="ink_ext_XXXXXX"
     transform="matrix(1.3333333,0,0,-1.3333333,0,167.81333)">
    <g
       id="g10"
       transform="scale(0.1)">
      <path
         d="m 1891.39,1016.44 h 396.91 l -37.38,-152.838 h -190.24 l -18.8,-80.305 h 198.45 l -34.55,-141.613 h -195.89 l -47.02,-201.192 h -205.04 l 133.56,575.948"
         style="fill:#ffffff;fill-opacity:1;fill-rule:nonzero;stroke:none"
         id="path12" />
      <path
         d="m 2342.26,1016.44 h 205.03 L 2413.73,440.492 h -205.04 l 133.57,575.948"
         style="fill:#ffffff;fill-opacity:1;fill-rule:nonzero;stroke:none"
         id="path14" />
      <path
         d="m 2752.36,741.844 c 65.84,0 111.94,38.867 111.94,94.121 0,29.363 -21.64,44.043 -63.97,44.043 -12.22,0 -18.81,-0.863 -31.97,-3.457 l -31.05,-132.969 c 6.6,-0.871 7.53,-1.738 15.05,-1.738 z m -151.42,271.136 13.16,1.73 c 65.84,7.77 147.68,12.95 192.81,12.95 75.25,0 133.57,-8.63 177.78,-26.76 56.42,-23.314 90.29,-74.263 90.29,-135.572 0,-52.664 -17.87,-102.754 -51.74,-141.609 -29.16,-33.672 -55.49,-50.078 -110.05,-66.489 l -13.16,-4.312 c 5.64,-4.328 7.53,-6.059 10.35,-8.645 15.99,-18.132 63.96,-111.394 104.41,-203.781 h -225.75 c -29.15,82.031 -37.61,103.613 -76.18,196.875 l -45.15,-196.875 h -199.39 l 132.62,572.488"
         style="fill:#ffffff;fill-opacity:1;fill-rule:nonzero;stroke:none"
         id="path16" />
      <path
         d="m 3561.73,1016.44 h 497.5 l -34.76,-166.725 h -147.65 l -97.83,-409.223 h -205.03 l 97.82,409.223 h -160.05 l 50,166.725"
         style="fill:#ffffff;fill-opacity:1;fill-rule:nonzero;stroke:none"
         id="path18" />
      <path
         d="m 3873.6,495.055 c 4.45,0 6.97,2.129 6.97,6.191 0,3.867 -2.33,5.996 -6.77,5.996 -0.97,0 -1.16,0 -2.13,-0.195 V 495.25 c 0.77,-0.195 1.16,-0.195 1.93,-0.195 z m -17.97,23.972 c 2.51,0.2 2.9,0.383 7.92,0.774 5.02,0.39 7.15,0.586 9.28,0.586 16.44,0 24.55,-6.387 24.55,-18.567 0,-7.343 -3.08,-11.785 -9.67,-14.304 l -0.77,-0.196 c 0.58,-0.39 0.77,-0.578 0.97,-0.957 1.74,-1.554 7.54,-10.254 12.37,-18.183 h -18.75 c -3.86,7.16 -5.03,9.09 -9.86,17.207 V 468.18 h -16.04 z m 19.33,-69.402 c 24.36,0 43.89,19.531 43.89,43.691 0,24.356 -19.53,43.887 -43.89,43.887 -24.17,0 -43.69,-19.531 -43.69,-43.691 0,-24.551 19.34,-43.887 43.69,-43.887 z m 0,93.77 c 27.64,0 50.07,-22.247 50.07,-49.883 0,-27.84 -22.24,-50.078 -50.07,-50.078 -28.04,0 -49.88,21.855 -49.88,50.078 0,27.832 22.04,49.883 49.88,49.883"
         style="fill:#ffffff;fill-opacity:1;fill-rule:nonzero;stroke:none"
         id="path20" />
      <path
         d="m 3447.21,747.039 c -23.52,18.981 -47.97,33.672 -97.83,56.981 l -40.43,18.996 c -13.18,6.914 -19.76,13.816 -19.76,21.589 0,20.723 26.34,36.258 62.08,36.258 26.74,0 58.6,-7.769 119.5,-27.683 l 42.03,155.91 c -45.54,12.37 -89.92,18.57 -134.26,18.57 -167.42,0 -296.27,-91.519 -296.27,-209.82 0,-62.168 41.38,-106.211 144.84,-154.574 48.91,-22.442 57.38,-28.496 57.38,-44.032 0,-23.308 -25.4,-38 -66.78,-38 -36.68,0 -83.71,11.235 -147.67,34.543 l -0.08,-0.019 -45,-160.625 c 57.65,-17.129 120.68,-26.731 179.58,-26.731 79.95,0 141.09,18.125 193.75,56.125 58.31,41.453 95.94,105.34 95.94,163.196 0,38.867 -16.93,74.265 -47.02,99.316"
         style="fill:#ffffff;fill-opacity:1;fill-rule:nonzero;stroke:none"
         id="path22" />
      <path
         d="m 853.008,921.297 c 31.23,0 61.523,-2.856 90.449,-8.137 l 68.843,71.731 c -48.14,16.659 -102.183,26.009 -159.292,26.009 -97.11,0 -185.274,-27.076 -250.645,-71.146 l 59.981,-56.848 c 55.469,24.309 120.742,38.391 190.664,38.391"
         style="fill:#959596;fill-opacity:1;fill-rule:nonzero;stroke:none"
         id="path24" />
      <path
         d="m 853.008,1010.9 c 57.109,0 111.152,-9.35 159.292,-26.009 l 74.83,77.919 c -69.83,27.52 -149.474,43.15 -234.122,43.15 -126.153,0 -241.289,-34.71 -329.141,-91.83 l 78.496,-74.376 c 65.371,44.07 153.535,71.146 250.645,71.146"
         style="fill:#ffffff;fill-opacity:1;fill-rule:nonzero;stroke:none"
         id="path26" />
      <path
         d="m 493.652,706.059 c 6.289,25.707 17.93,50.121 33.965,72.66 l -30.137,30.488 c -6.015,-18.75 -9.316,-38.281 -9.316,-58.352 0,-15.285 1.941,-30.234 5.488,-44.796"
         style="fill:#959596;fill-opacity:1;fill-rule:nonzero;stroke:none"
         id="path28" />
      <path
         d="M 270.898,537.477 258.242,471.852 384.18,526.07 c -7.95,16.731 -9.5,38.504 -14.121,56.25 l -99.161,-44.843"
         style="fill:#959596;fill-opacity:1;fill-rule:nonzero;stroke:none"
         id="path30" />
      <path
         d="M 182.273,1251.06 0,252.961 86.2031,245.922 266.68,1258.57 l -84.407,-7.51"
         style="fill:#959596;fill-opacity:1;fill-rule:nonzero;stroke:none"
         id="path32" />
      <path
         d="M 795.195,676.707 V 757.43 L 662.813,882.906 602.832,939.754 524.336,1014.13 266.395,1258.58 85.8398,245.922 467.871,413.883 c -38.047,33.601 -65.019,69.414 -85.019,111.609 l -124.375,-53.34 12.48,65.278 80.586,420 6.738,35.254 66.524,-67.012 85.586,-86.211 36.777,-37.055 151.113,-130.152 -146.718,-67.207 c 38.125,-38.086 83.222,-71.594 144.082,-90.539 l 183.007,82.187 -83.457,80.012"
         style="fill:#ed1c24;fill-opacity:1;fill-rule:nonzero;stroke:none"
         id="path34" />
      <path
         d="m 1212.34,706.059 c 3.56,14.562 5.53,29.511 5.53,44.796 0,45.086 -16.5,87.625 -44.84,124.59 l -43.44,-45 c 41.68,-34.718 71.35,-77.48 82.75,-124.386"
         style="fill:#959596;fill-opacity:1;fill-rule:nonzero;stroke:none"
         id="path36" />
      <path
         d="m 1294.02,278.836 -102.97,98.953 c -16.44,-11.262 -34.08,-21.68 -52.5,-31.25 l 155.47,-149.277 479.44,499.343 -0.53,80.872 -478.91,-498.641"
         style="fill:#959596;fill-opacity:1;fill-rule:nonzero;stroke:none"
         id="path38" />
      <path
         d="m 944.668,614.234 -84.785,81.446 -64.922,61.953 -0.234,-80.926 91.25,-87.641 87.226,-83.757 c 22.129,5.515 43.337,12.48 63.297,20.761 l -91.832,88.164"
         style="fill:#959596;fill-opacity:1;fill-rule:nonzero;stroke:none"
         id="path40" />
      <path
         d="m 1278.03,1065.82 -68.24,-71.05 -75.32,-78.457 -51.29,-53.426 -97.262,-101.282 40.742,-39.097 103.48,107.742 43.28,45.059 79.24,82.531 25.37,26.433 263.65,-252.734 40.78,42.344 -304.43,291.937"
         style="fill:#959596;fill-opacity:1;fill-rule:nonzero;stroke:none"
         id="path42" />
      <path
         d="m 1252.66,957.84 -79.24,-82.531 c 28.34,-36.961 44.45,-79.368 44.45,-124.454 0,-15.285 -1.97,-30.234 -5.53,-44.796 -9.25,-37.95 -30.04,-73.075 -59.68,-103.473 -30.39,-31.137 -70.04,-57.316 -116.16,-76.516 -19.96,-8.281 -41.168,-15.246 -63.297,-20.761 -37.637,-9.329 -78.066,-14.493 -120.195,-14.493 -51.875,0 -101.153,7.727 -145.82,21.653 -60.84,18.953 -113.008,49.363 -151.141,87.461 -13.918,13.867 -25.93,28.777 -35.844,44.531 -12.215,19.383 -21.258,40.016 -26.551,61.598 -3.547,14.562 -5.488,29.511 -5.488,44.796 0,20.071 3.301,39.602 9.316,58.352 l -91.054,92.156 c -33.321,-49.441 -52.149,-105.144 -52.149,-164.148 0,-15.199 1.387,-30.141 3.809,-44.824 5.84,-35.664 18.613,-69.7 37.227,-101.465 9.316,-15.969 20.167,-31.328 32.343,-46.035 32.032,-38.645 73.352,-72.551 121.719,-100.09 84.082,-47.832 189.316,-76.328 303.633,-76.328 79.98,0 155.512,13.918 222.482,38.64 20.31,7.5 39.82,15.996 58.44,25.442 43.2,21.828 81.48,48.535 113.45,79.074 53.66,51.219 89.5,113.152 100.57,180.762 2.42,14.683 3.79,29.625 3.79,44.824 0,82.73 -36.84,159.098 -99.08,220.625"
         style="fill:#ffffff;fill-opacity:1;fill-rule:nonzero;stroke:none"
         id="path44" />
      <path
         d="m 944.238,613.617 91.502,-87.859 c 46.1,19.199 86.08,45.078 116.49,76.211 l -125.45,120.469 -40.745,39.113 96.715,100.719 51.29,53.429 75.3,78.457 68.26,71.064 303.71,-291.572 -40.78,-42.46 -248.81,-259.075 c -26.19,-35.918 -60.18,-67.769 -100.35,-95.261 l 102.2,-98.633 479.46,499.304 L 1273.69,1256.96 1086.7,1062.19 1011.86,984.273 943.008,912.547 794.961,757.633 944.238,613.617"
         style="fill:#1c63b7;fill-opacity:1;fill-rule:nonzero;stroke:none"
         id="path46" />
      <path
         d="m 522.266,641.977 c 0,0 2.375,-3.934 2.668,-4.383 7.312,-11.641 17.379,-22.305 26.902,-32.93 l 149.16,68.906 -342.754,319.219 -9.375,-49.375 268.946,-266.238 -95.547,-35.199"
         style="fill:#959596;fill-opacity:1;fill-rule:nonzero;stroke:none"
         id="path48" />
      <path
         d="m 1351.74,737.215 c 0,-15.199 -1.37,-30.141 -3.79,-44.824 -11.07,-67.61 -46.91,-129.543 -100.57,-180.762 -31.97,-30.539 -70.25,-57.246 -113.45,-79.074 -18.62,-9.446 -38.13,-17.942 -58.44,-25.442 -66.97,-24.722 -142.502,-38.64 -222.482,-38.64 -114.317,0 -219.551,28.496 -303.633,76.328 -48.367,27.539 -89.687,61.445 -121.719,100.09 -12.176,14.707 -23.027,30.066 -32.343,46.035 -18.614,31.765 -31.387,65.801 -37.227,101.465 -2.422,14.683 -3.809,29.625 -3.809,44.824 0,4.762 0.332,9.492 0.586,14.187 -0.05,0.266 -0.136,0.606 -0.156,0.852 -2.422,-14.699 -0.43,-89.504 -0.43,-104.68 0,-24.054 3.203,-47.539 9.168,-70.32 4.621,-17.746 10.989,-35.031 18.938,-51.762 20,-42.195 50.066,-80.906 88.125,-114.512 91.523,-80.742 228.887,-132.144 382.5,-132.144 106.621,0 205.292,24.805 286.372,66.922 18.41,9.57 35.93,20.008 52.38,31.269 40.17,27.489 74.22,59.786 100.41,95.703 37.99,51.993 59.57,111.551 59.57,174.844 0,13.352 1.15,76.61 -0.14,101.731 -0.21,3.445 0.14,-7.739 0.14,-12.09"
         style="fill:#959596;fill-opacity:1;fill-rule:nonzero;stroke:none"
         id="path50" />
      <path
         d="m 2511.09,115.832 -39.45,96.559 -39.06,-96.559 z M 2616.35,4.87891 h -59.12 L 2527.97,72.7695 H 2415.72 L 2387.65,4.87891 h -55.21 L 2446.32,273.031 h 53.79 L 2616.35,4.87891"
         style="fill:#ffffff;fill-opacity:1;fill-rule:nonzero;stroke:none"
         id="path52" />
      <path
         d="M 2817.6,53.9492 2808.76,4.87891 H 2651.13 V 273.031 h 55.92 V 53.9492 h 110.55"
         style="fill:#ffffff;fill-opacity:1;fill-rule:nonzero;stroke:none"
         id="path54" />
      <path
         d="M 3085.63,131.512 C 3085.63,43.8203 3046.02,0 2966.68,0 2888.69,0 2849.65,43.4492 2849.65,130.309 v 142.722 h 55.59 V 130.309 c 0,-53.9106 20.54,-80.8871 61.7,-80.8871 41.43,0 62.2,26.9765 62.32,80.8871 v 142.722 h 56.37 V 131.512"
         style="fill:#ffffff;fill-opacity:1;fill-rule:nonzero;stroke:none"
         id="path56" />
      <path
         d="m 3462.08,4.87891 h -54.39 L 3390.01,193.949 3314.44,37.832 h -35.37 L 3204.69,193.949 3184.66,4.87891 h -51.99 l 33.36,268.15209 h 51.58 l 80.74,-168.41 80.83,168.41 h 51.86 L 3462.08,4.87891"
         style="fill:#ffffff;fill-opacity:1;fill-rule:nonzero;stroke:none"
         id="path58" />
      <path
         d="m 3773.02,4.87891 h -50.26 L 3567.47,193.57 V 4.87891 h -52.62 V 273.031 h 50.65 L 3720.16,83.5586 V 273.031 h 52.86 V 4.87891"
         style="fill:#ffffff;fill-opacity:1;fill-rule:nonzero;stroke:none"
         id="path60" />
      <path
         d="m 3898,4.87891 h -55.94 V 273.031 H 3898 V 4.87891"
         style="fill:#ffffff;fill-opacity:1;fill-rule:nonzero;stroke:none"
         id="path62" />
    </g>
  </g>
</svg>
